<?xml version="1.0" encoding="UTF-8"?>
<svg id="_レイヤー_1" data-name="レイヤー 1" xmlns="http://www.w3.org/2000/svg" xmlns:xlink="http://www.w3.org/1999/xlink" viewBox="0 0 110 114">
  <defs>
    <style>
      .cls-1 {
        fill: none;
      }

      .cls-2 {
        fill: #b80009;
      }

      .cls-3 {
        clip-path: url(#clippath);
      }
    </style>
    <clipPath id="clippath">
      <rect class="cls-1" x=".08" y=".05" width="109.84" height="113.91"/>
    </clipPath>
  </defs>
  <g class="cls-3">
    <g id="_グループ_3" data-name="グループ 3">
      <path id="_パス_14" data-name="パス 14" class="cls-2" d="M9.3,62.73c1.48-.04,2.15-.29,2.57-.75.46-.59.69-1.33.63-2.07v-16.89c-1.2-1.22-1.94-1.93-2.23-2.15-.24-.24-.55-.38-.88-.41v-.89h8.14l13.13,14.2h.2v-9.8c.09-.92-.18-1.84-.74-2.58-.62-.66-1.51-1-2.41-.93v-.89h7.45v.89c-.71.04-1.38.3-1.93.74-.42.31-.64,1-.63,2.08v20.29h-1.12l-16.96-18.33h-.28v13.99c-.07.81.11,1.62.52,2.32.53.73,1.07,1.13,2.72,1.18v.89h-8.17v-.89Z"/>
      <path id="_パス_15" data-name="パス 15" class="cls-2" d="M44.76,77.21v-9.05c-.04-.45.14-.89.49-1.17.54-.31,1.16-.44,1.78-.36,1.54-.16,3.02.65,3.71,2.03.46,1.03.67,2.15.62,3.27,0,2.25-.55,3.68-1.64,4.3-1.1.62-2.37.95-4.94.98M35.94,89.48h11.64v-.89c-1.35-.05-1.7-.29-2.15-.72-.54-.73-.78-1.63-.67-2.53v-6.69h.51l9.99,10.84h8.64v-.86c-.3-.01-.6-.07-.89-.17-.27-.11-.51-.3-.68-.55l-9.46-10.21c1.1-.26,2.11-.78,2.97-1.51,1.43-1.08,2.23-2.79,2.16-4.58,0-2.62-1.56-4.44-4.67-5.45-2.05-.56-4.17-.81-6.29-.75h-11.11v.89c1.32.1,1.33.29,1.71.57.56.42.83,1.31.83,2.68v15.77c.13.92-.13,1.85-.71,2.57-.47.39-.53.62-1.83.68v.9Z"/>
      <path id="_パス_16" data-name="パス 16" class="cls-2" d="M45.31,41.12c.47-.22.98-.33,1.5-.32l4.45,4.82c-.21,1.48-.85,2.87-1.82,4-.81.76-2.35,1.12-4.63,1.1v-8.25c-.07-.5.12-1.01.5-1.35M52.32,46.74l25.89,28v5.2s-.56,0-.56,0l-10.39-11.2c-1.27-1.38-.86-1.97-.44-2.11s.23-.25,1.64-.32v-.89h-12.67v.89c.73,0,1.44.24,2.03.67.64.58,1.24,1.2,1.81,1.85l18.99,20.69h1.33v-12.88l20.55,22.23c0-.46-.05-.58.07-.76s-.07-.56-.07-1.18c-.07-.72-.29-1.41-.65-2.04-.28-.46-.16-.86-.25-1.41-.09-.85-.14-1.71-.14-2.57-.06-.84-.06-1.68,0-2.53.16-1.03.44-2.04.81-3.01.22-.56.57-1.06,1.02-1.46.1-.13.15-.3.12-.46.09-.53.13-1.06.11-1.6-.08-.55-.14-1.8-.28-2.46-.25-1.18-.93-1.3-1.11-1.76-.21-.41-.39-.84-.56-1.28-.06-.23-.19-.43-.37-.58-.38-.33-.78-.63-1.2-.9-.73-.42-1.32-1.06-1.67-1.83-.16-.53.49-.7.49-.83,0-.22-.13-.35.02-.53.35-.35.85-.51,1.34-.42.6.06,1.18-.2,1.55-.67.18-.46-.28-.21-.18-.95.02-.14-.14-.32-.18-.62s-.15-.99-.21-1.33c-.07-.38-.42-1.1-.51-1.5-.19-.84-1.06-1.2-1.26-1.52-.29-.73-.5-1.48-.61-2.26-.03-.59,0-1.19.09-1.78-.11-.5-.31-.97-.61-1.39-.26-.41-.53-1.85-.87-2.37s-.15-1.3-.4-1.48c-.39-.45-.76-.92-1.09-1.41-.42-.56-.71-1.6-1.08-1.98-.42-.43-1.44-.63-1.58-.83-.34-.32-.75-.54-1.21-.64-.14-.05-.9-.11-1.65-.24s-1.51.3-1.76.26c-.46-.07-1.46-.53-1.74-.53s-1.11.58-1.64.26c-.27-.16-.07-.14-.16-.79,0-.72.19-1.42.56-2.04.46-.76,1.1-1.39,1.88-1.83.52-.45,1.15-.74,1.83-.83.46,0,1.78-.65,2.25-.65.28,0,1.62-.37,1.83-.21.43.33.79.12,1.18-.05.87-.36,1.79.01,2.18-.51.28-.37.68-.43,1.14-.83.33-.28.9-.71,1.07-.88.41-.43,1.57-.51,2.04-.88.24-.19.55-.47.95-.78.43-.33.89-.63,1.36-.89.44-.24,1.41-.39,2.5-.86.68-.19,1.29-.57,1.76-1.09.38-.51,1.65-.85,1.67-1.67.16-.61.28-1.24.36-1.86.14-.62.49-1.17.98-1.57.37-.17.64-1.91,1.07-2.16s.27-1.06-.37-1.36c-.51-.31-.99-.66-1.44-1.05-.46-.37-.84-.94-1.85-.83-.46.05-1.02-.86-1.3-1.14s-.44-.95-1-1.3c-.53-.33-.66-.88-1.05-1.39-.28-.37-1.55-.02-1.92-.39-.43-.34-.82-.71-1.18-1.12-.3-.46-.55-.94-.75-1.45-.28-.46-.93-.7-1.21-1.16-.21-.35.08-1.51-.56-1.69-.99-.47-1.89-1.12-2.67-1.9-.3-.36-2.33-.03-2.8,0-.97.07-1.77.85-3.08.51-.71-.18-1.39-.41-2.06-.7-.51-.31-.95-.72-1.3-1.2-.25-.28-.78-1.17-1.11-1.21-.84-.09-1.13.64-1.88.77-.27.05-.62.44-1.41.77-.75.34-1.46.77-2.1,1.28-.28.28-1.32-.05-1.97.42-.69.51-1.44.95-2.22,1.3-.37.09-1.11,1.16-1.11,1.16,0,0-.26.55-.46.97-.38.71-.84,1.36-1.39,1.95-.56.96-1.18,1.88-1.85,2.76-.56.46-.71-.22-1.04.09-.39.37-.81.21-1.09.21s-.25-.21-.35-.76c-.01-.52.26-1.02.72-1.27.37-.28.65-1.02,1.16-1.51.39-.37.44-.42.35-.69s.62-.88.53-1.51c-.04-.31.28-.82.49-1.39.13-.36.66-1.3.56-1.53.07-.57.21-1.14.44-1.67.18-.65,0-1.11.56-1.53.01-.01.63-1.78.65-1.85.09-.46.18-2.76.28-2.97.24-.45.44-.91.6-1.39.09-.41.15-.83.18-1.25.09-.56.23-2.73.32-3.2s-.2-.57-.56-.74c-.64-.19-1.28-.32-1.94-.41-.79-.09-1.57-.23-2.34-.44-.1-.06-.33.15-.67.16-.65.03-1.56-.06-1.74,0-.65.21-1.33.33-2.02.35-.52-.06-1.04.08-1.46.39-.76.51-1.64.83-2.55.93-.69.13-1.39.16-2.08.07-.53,0-1.05.13-1.53.35,0,0-1.3.56-1.67.65-.3.08-2.01.89-2.76,1.2-1,.22-1.95.61-2.83,1.13-.33.23-.6.54-.79.9l-.62.14c-.92.92-.49,1.14-1.16,1.76-.53.39-.94.91-1.21,1.51-.44.44-.97,1.07-.95,1.55-.21.4-.84.93-.95,1.37-.09.58-.03,1.18.16,1.74.18.81.52,1.47.75,2.45.25,1.69-.01,3.42-.75,4.96-.65.92-.56,2.24-1.31,2.56-.13.06-2.01,1.6-2.58,1.86-.85.24-1.72.37-2.6.39-1.48-.18-4.06-2.36-5-3.52-1.38-1.67-2.67-3.42-3.87-5.24-1.13-1.77-2.01-3.68-2.64-5.68-.02-.38-.02-.76.02-1.14l-4.15,3.27,23.45,25.37h-9.74v.89c.47,0,.92.14,1.3.42.79.38,1.25,1.22,1.15,2.09v17.27c.09.86-.35,1.68-1.11,2.08-.48.24-.19.38-1.35.42v.89h21.71l1.61-7.4h-1.12c-.91,2.03-2.41,3.75-4.3,4.94-1.73.95-3.69,1.41-5.67,1.32-.92.08-1.84-.06-2.69-.41-.48-.36-.73-.94-.66-1.53v-8.6c2.28,0,3.86.41,4.74,1.24,1.04,1.19,1.66,2.69,1.75,4.27h1v-10.7Z"/>
      <path id="_パス_17" data-name="パス 17" class="cls-2" d="M6.25,65.89l-2.02.35v-.07c.43-.13.84-.34,1.19-.63.22-.15.35-.4.33-.67-.05-.22-.23-.4-.45-.45-.34-.1-.7-.14-1.06-.12-.45.02-.9.07-1.34.14-.48.08-.96.19-1.43.34-.32.09-.61.24-.86.46-.16.14-.23.34-.2.55.01.07.04.14.08.2.05.07.1.14.17.19l1.18-.2c.15-.02.29-.05.44-.1.06-.03.12-.07.16-.12.05-.05.06-.12.05-.19l-.02-.07.15-.03.23,1.32-.15.03c-.02-.08-.06-.14-.12-.19-.07-.04-.15-.05-.23-.05-.13,0-.27.02-.4.05l-1.18.2c-.18-.13-.33-.3-.45-.48-.11-.17-.19-.36-.22-.57-.05-.23,0-.48.11-.69.13-.21.3-.4.5-.55.23-.18.48-.33.75-.45.41-.17.83-.29,1.27-.36.74-.15,1.51-.13,2.24.06.64.19,1,.5,1.07.94.02.12.02.25,0,.38-.03.11-.08.22-.14.32-.05.08-.09.17-.11.26,0,.04.04.07.1.09.11.03.23.04.34.03l.02.07Z"/>
      <path id="_パス_18" data-name="パス 18" class="cls-2" d="M6.61,67.73c.13.42-.05.83-.54,1.23-.59.44-1.27.75-1.99.89-.64.16-1.3.21-1.95.14-.78-.1-1.23-.39-1.34-.87-.11-.48.14-.94.76-1.36.57-.37,1.2-.63,1.86-.77.71-.19,1.46-.22,2.19-.08.62.14.96.41,1.02.82M6.34,67.82c-.06-.25-.37-.38-.92-.38-.64.02-1.28.12-1.9.28-.73.14-1.43.39-2.07.75-.29.19-.42.39-.37.59.04.14.15.25.29.29.3.09.61.11.91.07.52-.04,1.04-.13,1.54-.26.56-.12,1.11-.28,1.65-.49.27-.1.51-.25.72-.44.12-.1.17-.26.14-.41"/>
      <path id="_パス_19" data-name="パス 19" class="cls-2" d="M1.36,70.99l.15-.04.03.09c.02.07.06.12.13.15.07.03.15.04.23.03.18-.03.35-.08.52-.14l3.66-1.09c.18-.05.36-.11.53-.18.06-.03.12-.08.16-.14.04-.06.05-.13.03-.2l-.03-.09.15-.04.35,1.18c.1.28.08.58-.04.85-.2.35-.49.64-.85.83-.46.28-.95.49-1.47.64-.36.11-.73.19-1.11.23-.29.04-.59.04-.88.01-.21-.02-.42-.08-.62-.17-.17-.09-.32-.21-.44-.37-.07-.11-.13-.23-.16-.36l-.35-1.18ZM6.92,70.42l-4.36,1.3c-.14.04-.28.09-.42.14-.04.02-.08.05-.1.09-.03.05-.04.12-.02.17.07.22.27.34.62.36.69,0,1.38-.12,2.04-.35.58-.16,1.14-.38,1.67-.67.24-.12.44-.31.59-.54.06-.17.05-.35-.02-.51"/>
      <path id="_パス_20" data-name="パス 20" class="cls-2" d="M5.39,73.59l-.03-.09,1.48-.73c.17-.08.34-.16.52-.22.15-.06.31-.08.47-.07.14.01.22.06.24.14s0,.18-.11.27c-.11.09-.24.17-.38.21-.19.06-.38.11-.57.14l-1.62.34Z"/>
      <path id="_パス_21" data-name="パス 21" class="cls-2" d="M8.97,75.08l-1.8.69-.03-.07c.37-.16.71-.4.99-.7.22-.26.29-.47.23-.65-.06-.14-.19-.23-.34-.24-.18-.02-.37,0-.55.07-.11.04-.21.09-.3.16-.12.09-.22.2-.3.32-.11.19-.21.39-.3.6-.15.36-.36.69-.64.96-.26.22-.57.4-.89.52-.4.16-.84.23-1.27.18-.32,0-.61-.18-.74-.47-.03-.08-.04-.17-.04-.26.01-.12.04-.24.09-.35.03-.06.03-.12.02-.18-.01-.03-.05-.06-.12-.08-.09-.02-.19-.02-.28,0l-.02-.07,2.05-.78.02.07c-.44.2-.84.48-1.18.83-.24.28-.32.51-.25.7.06.15.21.25.38.26.21.02.42,0,.61-.08.13-.05.24-.11.35-.19.11-.08.2-.17.28-.28.11-.16.21-.34.28-.52.11-.27.25-.52.42-.75.14-.17.3-.32.48-.45.2-.14.43-.26.66-.34.37-.15.77-.21,1.17-.18.29,0,.55.16.68.42.03.09.04.18.03.28-.02.1-.05.2-.09.29-.04.07-.06.15-.06.24.02.04.06.06.1.06.11,0,.22-.03.33-.06l.02.07Z"/>
      <path id="_パス_22" data-name="パス 22" class="cls-2" d="M4.9,80.19l-.14.06-.59-1.3.14-.06.04.08c.03.07.09.12.16.14.07.02.15.01.22-.01.17-.05.34-.12.5-.2l3.49-1.57c.17-.07.34-.15.5-.25.06-.04.11-.1.14-.16.03-.06.03-.14,0-.2l-.04-.08.14-.06.59,1.3-.14.07-.04-.08c-.03-.07-.09-.12-.16-.14-.07-.01-.15-.01-.22.01-.17.05-.34.12-.5.2l-3.48,1.57c-.17.07-.34.15-.5.25-.06.04-.11.1-.14.16-.03.06-.03.14,0,.2l.03.08Z"/>
      <path id="_パス_23" data-name="パス 23" class="cls-2" d="M10.55,78.91l-2.56,2.81,2.2-1.11c.22-.1.42-.22.59-.38.11-.1.14-.26.07-.39l.14-.07.41.81-.14.07c-.05-.07-.13-.13-.22-.16-.09-.01-.18,0-.26.03-.18.06-.36.14-.53.23l-4.31,2.18-.03-.07,3.46-3.83-3.31,1.68c-.21.08-.4.22-.54.4-.07.09-.08.2-.04.31l.03.06-.14.07-.44-.87.14-.07c.05.12.18.19.31.18.22-.03.42-.11.61-.21l3.67-1.86.11-.12c.08-.08.15-.17.2-.28.02-.07.02-.15-.02-.21l.14-.07.44.88Z"/>
      <path id="_パス_24" data-name="パス 24" class="cls-2" d="M10.02,84.19l-1.54.94c-.16.09-.32.2-.46.31-.05.05-.09.11-.12.18-.02.07-.02.14.02.2l.05.08-.13.08-.74-1.21.13-.08.05.08c.04.06.1.11.18.11.07,0,.15,0,.22-.04.16-.08.32-.16.47-.26l3.26-2c.16-.09.32-.2.46-.31.05-.05.09-.11.12-.18.02-.07.02-.14-.02-.2l-.05-.08.13-.08.74,1.21-.13.08-.04-.08c-.04-.06-.1-.11-.18-.11-.07,0-.15,0-.22.04-.16.08-.32.16-.47.26l-1.39.85.52.85,1.39-.85c.16-.09.32-.2.46-.31.05-.05.09-.11.12-.18.02-.07.01-.14-.02-.2l-.05-.07.13-.08.74,1.21-.13.08-.05-.07c-.04-.06-.1-.11-.18-.12-.07,0-.15,0-.22.04-.16.08-.32.16-.47.26l-3.26,2c-.16.09-.32.2-.46.31-.05.05-.09.11-.12.18-.02.07-.02.14.02.2l.05.07-.13.08-.75-1.21.13-.08.05.07c.04.06.1.11.18.11.07,0,.15,0,.22-.04.16-.08.32-.16.47-.26l1.54-.94-.52-.85Z"/>
      <path id="_パス_25" data-name="パス 25" class="cls-2" d="M9.91,88.88l-.13.09-.8-1.18.13-.09.05.07c.04.06.11.1.18.11.07,0,.15-.01.22-.05.16-.08.31-.18.46-.29l3.16-2.15c.16-.1.31-.21.45-.33.05-.05.09-.11.11-.18.02-.07,0-.14-.03-.2l-.05-.07.13-.09.8,1.18-.13.09-.05-.07c-.04-.06-.11-.1-.18-.11-.07,0-.15.02-.22.05-.16.08-.31.18-.46.28l-3.16,2.15c-.16.1-.31.21-.45.33-.05.05-.09.11-.11.18-.02.07,0,.14.03.2l.05.07Z"/>
      <path id="_パス_26" data-name="パス 26" class="cls-2" d="M15.94,87.37l-1.55,1.14-.04-.06c.32-.26.58-.58.76-.94.14-.31.16-.53.05-.69-.09-.12-.25-.17-.39-.14-.18.03-.36.1-.5.21-.09.07-.18.15-.25.24-.09.12-.15.25-.2.39-.06.22-.1.44-.13.66-.04.39-.17.76-.36,1.1-.19.29-.44.54-.72.74-.34.27-.74.44-1.17.52-.31.09-.63-.01-.84-.26-.05-.07-.09-.15-.11-.24-.02-.12-.02-.24-.01-.36.01-.06,0-.13-.03-.18-.04-.03-.09-.05-.14-.04-.09,0-.19.03-.27.08l-.04-.06,1.76-1.3.04.06c-.37.31-.68.69-.91,1.12-.15.33-.17.58-.05.74.1.13.27.19.43.15.21-.03.4-.12.57-.25.11-.08.2-.17.29-.28.08-.1.15-.22.2-.35.06-.19.11-.38.13-.58.03-.29.1-.57.2-.84.09-.2.2-.39.34-.56.16-.19.34-.36.54-.51.32-.25.69-.42,1.09-.49.28-.08.58,0,.76.22.05.08.09.17.1.26.01.1,0,.21-.01.31-.02.08-.02.16,0,.24.03.03.07.04.11.03.11-.04.21-.09.3-.15l.04.05Z"/>
      <path id="_パス_27" data-name="パス 27" class="cls-2" d="M15.18,91.41l-1.37,1.18c-.14.12-.28.24-.41.38-.05.06-.08.13-.09.2-.01.07,0,.14.05.19l.06.07-.12.1-.93-1.08.12-.1.06.07c.05.06.12.09.19.08.07,0,.15-.03.21-.07.15-.1.29-.21.42-.33l2.9-2.49c.14-.12.28-.24.41-.38.04-.06.08-.12.09-.19.01-.07,0-.14-.06-.19l-.06-.07.12-.1.93,1.07-.12.1-.06-.07c-.05-.06-.12-.09-.19-.08-.07,0-.15.03-.21.07-.15.1-.29.21-.42.33l-1.24,1.06.65.75,1.24-1.07c.14-.12.28-.24.41-.38.05-.06.08-.13.09-.2.01-.07,0-.14-.06-.19l-.06-.06.12-.1.93,1.08-.12.1-.06-.07c-.05-.06-.12-.09-.19-.09-.07,0-.15.03-.21.07-.15.1-.29.21-.42.33l-2.9,2.49c-.14.12-.28.24-.41.38-.05.06-.08.13-.09.2-.01.07,0,.14.06.19l.06.07-.12.1-.93-1.08.12-.1.06.07c.05.06.12.09.19.09.07,0,.15-.03.21-.07.15-.1.29-.21.42-.33l1.37-1.18-.64-.76Z"/>
      <path id="_パス_28" data-name="パス 28" class="cls-2" d="M19.41,92.11l-1.71,1.65.04.04c.14.13.36.14.52.04.31-.16.59-.36.84-.6l.05.05-2.2,2.12-.05-.06c.19-.2.37-.42.52-.65.09-.13.16-.28.18-.43,0-.11-.05-.22-.13-.3l-1.18,1.14c-.14.13-.28.27-.41.42-.04.05-.07.11-.08.17,0,.06.02.13.07.17l.11.12c.18.19.45.26.7.18.39-.11.75-.3,1.06-.56l.06.06-1.41,1.19-1.65-1.71.11-.11.06.07c.05.06.13.08.2.07.07-.01.14-.04.2-.08.14-.11.28-.23.4-.36l2.75-2.65c.19-.18.3-.3.34-.34.05-.06.09-.14.11-.21.03-.08,0-.17-.06-.23l-.06-.07.11-.11,1.59,1.65-1.23,1.18-.05-.05c.21-.22.39-.47.53-.74.08-.15.1-.33.08-.5-.05-.14-.13-.27-.25-.36l-.19-.2Z"/>
      <path id="_パス_29" data-name="パス 29" class="cls-2" d="M19.08,97.15l-.7-.65-.48.33c-.13.09-.25.19-.36.3-.09.09-.16.2-.18.33.01.1.06.19.13.26l-.11.12-.68-.64.11-.12c.12.04.25.04.35-.02.27-.14.53-.3.77-.48l3.89-2.71.03.03-2.53,4.16c-.16.25-.3.51-.41.78-.03.08-.01.18.04.25l-.11.12-.98-.91.11-.11.04.04c.06.07.14.1.23.09.07-.02.12-.06.17-.11.04-.04.07-.08.1-.12.02-.02.07-.11.17-.28l.39-.63ZM19.24,96.88l1.03-1.7-1.63,1.14.6.56Z"/>
      <path id="_パス_30" data-name="パス 30" class="cls-2" d="M24.49,96.38l-.1.12c-.15-.03-.3,0-.42.08-.29.18-.58.38-.85.59l-3.6,2.75-.06-.05,2.28-4.11c.17-.29.32-.59.46-.89.03-.1.02-.2-.05-.28l.1-.12,1.01.87-.1.12-.03-.03c-.06-.07-.16-.1-.25-.09-.06.02-.12.06-.16.11-.04.05-.07.1-.11.15-.04.06-.13.23-.29.5l-1.43,2.57,2.08-1.59c.25-.19.42-.33.5-.4.07-.06.13-.12.19-.19.05-.06.09-.12.12-.19.02-.06.03-.12.02-.18-.02-.08-.06-.15-.13-.21l.1-.12.68.59Z"/>
      <path id="_パス_31" data-name="パス 31" class="cls-2" d="M25.26,97.39l-1.45,1.89.04.03c.16.11.37.09.52-.04.28-.21.53-.45.75-.72l.06.04-1.86,2.43-.06-.04c.16-.23.3-.47.42-.72.07-.14.12-.3.12-.46-.02-.11-.08-.21-.17-.27l-1,1.3c-.12.15-.24.31-.34.48-.03.06-.05.12-.05.18,0,.06.04.12.09.16l.13.1c.21.16.49.19.72.07.37-.17.69-.41.97-.71l.06.05-1.22,1.39-1.89-1.45.09-.12.07.05c.06.05.13.06.2.04.07-.02.14-.06.19-.11.13-.13.24-.27.35-.41l2.33-3.03c.16-.21.25-.34.29-.39.04-.07.07-.15.08-.23.01-.09-.02-.17-.09-.22l-.07-.05.1-.12,1.82,1.4-1.04,1.35-.06-.04c.17-.25.31-.53.41-.81.05-.16.05-.34,0-.5-.07-.13-.17-.24-.3-.32l-.22-.18Z"/>
      <path id="_パス_32" data-name="パス 32" class="cls-2" d="M27.63,98.72l-.89,3.7,1.39-2.04c.14-.19.26-.4.34-.62.05-.14,0-.29-.13-.37l.09-.13.75.51-.09.13c-.08-.04-.17-.05-.26-.03-.08.03-.16.08-.21.15-.13.14-.25.29-.35.46l-2.72,3.99-.06-.04,1.18-5.03-2.09,3.06c-.14.18-.24.39-.28.61-.01.11.03.22.12.29l.06.04-.09.13-.8-.55.09-.13c.1.08.25.08.36,0,.17-.13.32-.3.43-.48l2.32-3.4.04-.16c.03-.11.05-.23.04-.34-.01-.07-.05-.14-.12-.18l.09-.13.81.56Z"/>
      <path id="_パス_33" data-name="パス 33" class="cls-2" d="M27.36,103.93c.08.05.11.15.09.31-.06.34-.25.65-.54.85-.13.08-.23.1-.31.05s-.11-.15-.09-.3c.02-.17.09-.34.18-.48.09-.15.21-.28.35-.38.13-.08.24-.1.31-.05"/>
      <path id="_パス_34" data-name="パス 34" class="cls-2" d="M30.5,105.37l-.84-.46-.38.44c-.1.12-.2.24-.28.38-.07.11-.1.23-.09.36,0,.06.07.13.19.22l-.08.14-.82-.45.08-.14c.12.01.25-.03.34-.11.23-.2.44-.42.63-.65l3.1-3.58.03.02-1.42,4.65c-.1.28-.16.57-.2.86,0,.09.03.17.1.23l-.08.14-1.17-.64.08-.14.05.03c.07.05.16.06.24.03.06-.04.11-.09.13-.15.03-.05.05-.1.07-.15,0-.02.04-.13.1-.31l.21-.71ZM30.6,105.06l.58-1.9-1.3,1.5.72.4Z"/>
      <path id="_パス_35" data-name="パス 35" class="cls-2" d="M34.32,106.84l-.98,1.8-2.21-1.06.07-.14.08.04c.07.03.14.03.21,0,.07-.04.12-.09.16-.15.1-.15.18-.31.25-.48l1.66-3.45c.09-.16.16-.34.22-.51.02-.07.02-.14,0-.21-.02-.07-.06-.13-.13-.15l-.08-.04.07-.14,1.33.64-.07.14-.11-.05c-.07-.04-.15-.04-.22,0-.07.03-.12.09-.17.15-.1.15-.18.31-.25.48l-1.6,3.33c-.09.17-.16.34-.22.52-.02.07-.02.14,0,.21.06.06.13.11.21.14l.21.1c.12.06.27.07.4.01.17-.09.33-.21.45-.35.23-.27.44-.55.63-.85l.08.04Z"/>
      <path id="_パス_36" data-name="パス 36" class="cls-2" d="M36.98,107.96l-.89,1.85-2.26-.95.06-.15.08.04c.07.03.15.03.21,0,.06-.04.12-.09.15-.16.09-.16.16-.32.23-.49l1.48-3.52c.08-.17.15-.34.2-.52.02-.07.01-.14,0-.21-.02-.07-.07-.12-.13-.15l-.08-.04.06-.15,1.36.57-.06.14-.12-.05c-.07-.03-.15-.03-.22,0-.07.04-.12.09-.16.16-.09.16-.17.32-.23.49l-1.43,3.41c-.08.17-.15.35-.2.53-.02.07-.01.14.02.2.06.06.13.11.21.13l.21.09c.13.06.27.05.4,0,.17-.09.32-.22.43-.38.22-.28.42-.57.59-.88l.08.04Z"/>
      <path id="_パス_37" data-name="パス 37" class="cls-2" d="M38.21,107.32l-.09-.03.38-1.61c.04-.18.09-.36.16-.54.05-.15.13-.29.24-.41.1-.1.18-.13.26-.1s.13.12.14.26c0,.15-.03.29-.08.43-.07.18-.16.36-.25.53l-.76,1.47Z"/>
      <path id="_パス_38" data-name="パス 38" class="cls-2" d="M41.67,105.51l-.61,1.83-.07-.02c.11-.39.14-.8.08-1.21-.06-.33-.18-.53-.36-.59-.14-.04-.3,0-.4.11-.13.13-.23.29-.29.46-.04.11-.06.22-.07.34,0,.15.02.3.06.44.08.21.17.42.27.62.19.34.3.72.33,1.11,0,.35-.05.69-.17,1.02-.13.42-.35.79-.66,1.1-.2.25-.53.35-.83.27-.08-.03-.16-.07-.22-.13-.08-.09-.16-.19-.22-.29-.03-.06-.07-.1-.13-.13-.05,0-.1,0-.14.04-.07.06-.13.13-.18.22l-.07-.02.7-2.08.06.02c-.13.47-.16.96-.1,1.44.07.36.2.57.39.64.16.05.33,0,.44-.13.15-.15.26-.33.33-.53.04-.13.07-.26.08-.39,0-.13,0-.27-.04-.4-.06-.19-.13-.37-.22-.55-.14-.25-.24-.52-.31-.8-.05-.22-.06-.44-.04-.66.02-.25.07-.49.15-.73.12-.39.33-.74.61-1.03.18-.23.47-.33.75-.26.09.03.17.08.23.15.07.08.12.16.17.26.06.12.11.18.15.2.04,0,.08,0,.1-.04.07-.09.12-.19.16-.29l.06.02Z"/>
      <path id="_パス_39" data-name="パス 39" class="cls-2" d="M43.3,109.4l-.4,1.58c-.06.19-.09.38-.12.57,0,.07.01.15.05.21.06.07.14.12.23.13l-.04.15-1.36-.35.04-.15c.09.03.18.03.27,0,.06-.04.11-.1.14-.16.07-.18.13-.37.17-.56l.94-3.67c.06-.19.09-.38.12-.57,0-.07-.01-.15-.05-.21-.06-.07-.14-.12-.23-.13l.04-.15,1.25.32c.25.05.48.16.68.32.14.17.23.39.24.62.03.31,0,.63-.08.93-.08.36-.24.69-.48.98-.13.14-.3.24-.48.29l.17,2.07c0,.17.02.34.06.51.02.08.07.15.14.19l-.04.15-.82-.21-.23-2.78-.19-.05ZM44.01,106.63l-.63,2.46.12.03c.15.05.3.05.45,0,.14-.07.25-.19.32-.32.12-.22.21-.46.26-.7.1-.32.13-.65.09-.99-.03-.21-.19-.38-.4-.43l-.22-.05Z"/>
      <path id="_パス_40" data-name="パス 40" class="cls-2" d="M46.32,112.63l-.03.15-1.4-.29.03-.15.09.02c.07.02.14,0,.2-.05.05-.05.1-.11.12-.18.06-.17.1-.35.13-.52l.78-3.74c.04-.18.07-.36.09-.55,0-.07-.01-.14-.05-.21-.03-.06-.09-.11-.16-.12l-.09-.02.03-.15,1.4.29-.03.15-.09-.02c-.07-.02-.14,0-.2.05-.05.05-.1.11-.12.18-.06.17-.1.35-.13.52l-.78,3.74c-.04.18-.07.36-.09.55,0,.07.02.14.05.21.03.06.09.11.16.12l.08.02Z"/>
      <path id="_パス_41" data-name="パス 41" class="cls-2" d="M50.44,107.48l-.32,2.02h-.07c.02-.47-.05-.93-.21-1.36-.14-.32-.31-.5-.53-.53-.23-.02-.45.09-.57.28-.21.29-.36.62-.45.96-.13.43-.23.87-.3,1.32-.08.48-.13.97-.14,1.46-.02.33.03.66.16.96.08.19.25.33.45.37.07,0,.14,0,.21-.01.08-.02.16-.05.24-.1l.19-1.18c.03-.15.04-.3.05-.45,0-.07-.03-.14-.07-.2-.03-.06-.09-.1-.16-.11h-.07s.02-.17.02-.17l1.32.21-.02.15c-.08,0-.15.01-.22.06-.06.06-.1.12-.12.2-.04.13-.06.26-.08.39l-.19,1.18c-.18.12-.39.22-.6.27-.2.05-.41.06-.61.03-.24-.03-.46-.14-.61-.32-.16-.19-.28-.41-.36-.65-.1-.28-.16-.57-.18-.86-.03-.44,0-.89.06-1.32.1-.75.36-1.47.78-2.1.38-.55.8-.78,1.24-.71.13.02.25.06.36.12.1.07.18.15.26.24.06.08.13.14.21.19.04,0,.08-.02.12-.07.06-.1.11-.2.14-.31l.07.02Z"/>
      <path id="_パス_42" data-name="パス 42" class="cls-2" d="M51.63,110.76l-.17,1.8c-.02.18-.03.37-.03.56,0,.07.03.14.07.2.04.06.1.1.17.1h.09s-.01.16-.01.16l-1.42-.13v-.15s.1,0,.1,0c.07,0,.15-.02.2-.07.05-.06.08-.13.1-.2.04-.18.06-.35.07-.53l.36-3.81c.02-.18.03-.37.03-.55,0-.07-.03-.14-.07-.2-.04-.06-.1-.1-.17-.1h-.09s.01-.16.01-.16l1.42.14-.02.16h-.09c-.07-.02-.15,0-.2.06-.05.06-.08.13-.1.2-.04.18-.06.35-.07.53l-.16,1.63.99.1.15-1.63c.02-.18.03-.37.03-.56,0-.07-.03-.14-.07-.2-.04-.06-.1-.1-.17-.1h-.09s.01-.16.01-.16l1.42.14v.15s-.1,0-.1,0c-.07-.01-.15.02-.2.07-.05.06-.08.13-.1.2-.04.18-.06.36-.07.54l-.36,3.8c-.02.18-.03.37-.03.56,0,.07.03.14.07.2.04.06.1.1.17.1h.09s-.01.16-.01.16l-1.42-.13v-.16s.1,0,.1,0c.07.01.15-.02.2-.07.05-.06.08-.13.1-.2.04-.18.06-.35.07-.53l.17-1.8-.98-.09Z"/>
      <path id="_パス_43" data-name="パス 43" class="cls-2" d="M56.68,108.06l-.06,1.56h-.07c-.01-.26-.05-.53-.12-.78-.04-.14-.11-.28-.21-.39-.08-.06-.17-.09-.27-.09h-.21s-.17,4.47-.17,4.47c-.01.19-.01.37,0,.56.01.07.04.14.08.2.04.06.11.09.18.09h.09v.16s-1.43-.05-1.43-.05v-.16h.1c.07,0,.15-.03.19-.08.04-.06.08-.13.09-.2.03-.18.04-.36.04-.54l.17-4.48h-.21c-.17-.02-.34.07-.42.22-.15.3-.24.64-.27.98h-.07l.06-1.56,2.5.09Z"/>
      <path id="_パス_44" data-name="パス 44" class="cls-2" d="M61.91,107.91v.16s-.09.05-.11.1c-.04.08-.06.16-.08.24,0,.04-.03.26-.07.67l-.64,4.81h-.11l-.86-3.77-.58,3.84h-.07l-1.13-4.68c-.06-.29-.14-.58-.23-.86-.03-.09-.1-.15-.19-.17v-.16s1.19-.05,1.19-.05v.16c-.07,0-.14.04-.18.1-.03.07-.04.14-.04.21.03.23.07.46.13.68l.67,2.78.34-2.23-.14-.59c-.08-.33-.14-.55-.18-.67-.03-.09-.07-.17-.13-.24-.05-.05-.13-.07-.2-.06v-.16s1.33-.06,1.33-.06v.16c-.06,0-.13.02-.19.06-.03.03-.05.06-.06.1-.01.05-.02.11-.02.16.03.2.07.4.12.6l.63,2.72.33-2.5c.04-.26.06-.43.06-.53,0-.09,0-.17,0-.26,0-.1-.02-.19-.07-.27-.05-.07-.14-.11-.22-.1v-.16s.7-.02.7-.02Z"/>
      <path id="_パス_45" data-name="パス 45" class="cls-2" d="M64.07,113.33l.02.16-1.42.14-.02-.16h.09c.07-.01.14-.05.18-.12.04-.06.06-.14.06-.21,0-.18,0-.36-.03-.54l-.38-3.8c-.01-.19-.04-.37-.08-.55-.02-.07-.06-.13-.11-.18-.05-.05-.12-.07-.19-.07h-.09s-.02-.15-.02-.15l1.42-.14v.15s-.07,0-.07,0c-.07,0-.14.05-.18.11-.04.06-.06.14-.06.21,0,.18,0,.36.03.54l.38,3.8c.01.19.04.37.08.55.02.07.06.13.11.18.05.05.12.07.19.07h.09Z"/>
      <path id="_パス_46" data-name="パス 46" class="cls-2" d="M66.24,107.34l.22,1.55h-.07c-.06-.25-.15-.5-.26-.74-.06-.13-.16-.25-.27-.34-.09-.05-.19-.06-.28-.04l-.21.03.64,4.44c.02.18.05.37.1.55.02.07.06.13.11.18.05.05.12.07.19.06h.09s.02.14.02.14l-1.41.2-.02-.15h.09c.07-.02.14-.07.17-.13.03-.07.05-.14.05-.21,0-.18-.02-.36-.06-.54l-.64-4.44-.21.03c-.17.02-.32.13-.38.3-.09.33-.12.67-.08,1.01h-.07s-.22-1.54-.22-1.54l2.48-.35Z"/>
      <path id="_パス_47" data-name="パス 47" class="cls-2" d="M68.1,110.04l.36,1.77c.03.18.08.36.13.54.03.07.07.13.13.17.05.05.13.06.19.05l.09-.02.03.15-1.4.29-.02-.15.09-.02c.07-.01.14-.06.17-.13.03-.07.04-.14.04-.22-.02-.18-.05-.36-.09-.53l-.76-3.74c-.03-.18-.08-.36-.13-.54-.03-.07-.07-.13-.13-.17-.05-.05-.13-.06-.19-.05l-.09.02-.03-.15,1.4-.29.03.15-.09.02c-.07.01-.14.06-.17.12-.03.07-.04.14-.04.22.02.18.04.36.09.53l.33,1.6.97-.2-.33-1.6c-.03-.18-.08-.36-.13-.54-.03-.07-.07-.13-.13-.17-.06-.05-.13-.06-.2-.04l-.09.02-.03-.15,1.4-.29.03.15-.09.02c-.07.01-.14.06-.17.13-.03.07-.04.14-.04.22.02.18.04.36.09.53l.76,3.74c.03.18.08.36.13.54.03.07.07.13.13.17.06.05.13.06.2.04l.09-.02.03.15-1.4.29-.03-.15.09-.02c.07-.01.14-.06.17-.13.03-.07.04-.14.04-.22-.02-.18-.04-.36-.09-.53l-.36-1.77-.98.2Z"/>
      <path id="_パス_48" data-name="パス 48" class="cls-2" d="M73.13,105.68l.43,1.5-.07.02c-.1-.25-.22-.48-.36-.71-.08-.12-.19-.23-.32-.3-.09-.04-.19-.04-.29,0l-.2.06,1.24,4.31c.05.18.1.36.18.53.03.06.08.12.14.16.06.04.13.05.2.03l.09-.02.04.15-1.37.39-.04-.15.09-.02c.07-.02.13-.07.16-.14.02-.07.03-.15.02-.22-.03-.18-.07-.35-.13-.52l-1.24-4.31-.2.06c-.17.04-.3.18-.33.35-.05.34-.03.68.05,1.01l-.07.02-.43-1.5,2.4-.69Z"/>
      <path id="_パス_49" data-name="パス 49" class="cls-2" d="M75.34,108.11l.6,1.71c.06.18.12.35.21.52.04.06.09.12.15.15.06.04.13.05.2.02l.08-.03.05.15-1.34.47-.05-.15.08-.03c.07-.02.13-.08.15-.15.02-.07.02-.15,0-.22-.04-.18-.09-.35-.16-.52l-1.27-3.61c-.06-.18-.12-.35-.2-.52-.04-.06-.09-.11-.15-.15-.06-.04-.13-.04-.2-.02l-.08.03-.05-.15,1.35-.47.05.15-.08.03c-.07.02-.13.08-.15.15-.02.07-.02.15,0,.22.04.18.09.35.16.52l.54,1.54.93-.33-.54-1.54c-.06-.18-.12-.35-.21-.52-.04-.06-.09-.12-.15-.15-.06-.04-.13-.04-.2-.02l-.08.03-.05-.15,1.34-.47.05.15-.08.03c-.07.02-.13.08-.15.15-.02.07-.02.15,0,.22.04.18.09.35.16.52l1.27,3.61c.06.18.12.35.21.52.04.06.09.12.15.15.06.04.13.04.2.02l.08-.03.05.15-1.34.47-.05-.15.08-.03c.07-.02.13-.08.15-.15.02-.07.02-.15.01-.22-.04-.18-.09-.35-.16-.52l-.6-1.7-.94.32Z"/>
      <path id="_パス_50" data-name="パス 50" class="cls-2" d="M77.54,104.42l.92,2.2.05-.02c.16-.07.24-.22.22-.47-.04-.34-.13-.68-.26-1l.06-.03,1.18,2.82-.06.03c-.12-.25-.25-.5-.42-.72-.09-.13-.2-.25-.34-.33-.1-.04-.22-.04-.32.01l.63,1.51c.07.18.15.36.25.54.03.05.08.1.13.13.06.03.13.03.18,0l.15-.06c.24-.1.4-.33.43-.59.03-.4-.01-.81-.14-1.19l.07-.03.6,1.75-2.19.92-.06-.14.08-.04c.07-.03.12-.08.14-.16.02-.07.02-.15,0-.22-.05-.17-.11-.34-.19-.51l-1.48-3.53c-.1-.24-.17-.39-.2-.44-.04-.07-.09-.14-.16-.18-.07-.05-.16-.06-.24-.03l-.08.04-.06-.14,2.11-.88.66,1.57-.06.03c-.13-.27-.3-.53-.5-.76-.12-.13-.27-.21-.44-.25-.15,0-.3.03-.43.1l-.26.1Z"/>
      <path id="_パス_51" data-name="パス 51" class="cls-2" d="M83.52,101.16l.07.14s-.06.08-.07.14c0,.08,0,.17.03.25.01.03.08.25.22.64l1.46,4.63-.1.05-2.38-3.05,1.1,3.72-.07.03-3.01-3.76c-.18-.24-.37-.46-.57-.68-.06-.07-.16-.09-.25-.07l-.07-.14,1.07-.56.07.14c-.07.03-.12.1-.13.17,0,.07.02.14.05.21.12.2.26.39.41.56l1.79,2.24-.64-2.17-.38-.48c-.21-.27-.36-.44-.44-.53-.06-.07-.13-.12-.22-.16-.07-.02-.14-.01-.21.03l-.07-.14,1.18-.62.07.14c-.06.03-.12.08-.16.14-.02.04-.02.08-.01.12,0,.05.03.11.05.15.11.17.23.33.36.49l1.72,2.19-.76-2.4c-.08-.25-.13-.42-.17-.51-.03-.08-.07-.16-.11-.24-.04-.09-.1-.16-.18-.22-.08-.04-.17-.04-.25,0l-.07-.14.61-.33Z"/>
      <path id="_パス_52" data-name="パス 52" class="cls-2" d="M84.71,100.32c.42-.26.97-.21,1.34.13.61.42,1.11.97,1.47,1.61.35.55.61,1.17.75,1.81.15.77.02,1.29-.4,1.55-.42.26-.93.16-1.54-.3-.53-.42-.97-.94-1.31-1.52-.41-.62-.67-1.32-.76-2.05-.06-.63.09-1.04.46-1.23M84.88,100.55c-.22.13-.24.47-.07,1,.22.6.51,1.18.86,1.71.36.65.82,1.23,1.36,1.74.27.22.5.28.68.16.12-.08.2-.22.19-.37-.01-.31-.09-.61-.22-.89-.21-.48-.45-.94-.73-1.38-.29-.5-.62-.97-.99-1.41-.18-.22-.4-.41-.64-.55-.13-.08-.3-.08-.43,0"/>
      <path id="_パス_53" data-name="パス 53" class="cls-2" d="M88.83,101.5l.93,1.34c.11.16.23.32.36.46.05.05.12.08.19.1.09,0,.18-.03.25-.09l.09.13-1.15.8-.09-.13c.08-.04.14-.12.17-.21,0-.07,0-.15-.03-.21-.09-.18-.19-.34-.31-.5l-2.17-3.11c-.11-.16-.23-.32-.36-.46-.05-.05-.12-.08-.19-.1-.09,0-.18.03-.25.09l-.09-.13,1.06-.74c.2-.16.44-.26.69-.3.23,0,.44.08.62.22.25.18.47.41.65.67.22.29.37.64.43,1,.02.19-.01.38-.1.55l1.68,1.22c.13.11.27.2.42.29.07.04.16.05.24.01l.09.13-.7.49-2.26-1.65-.15.11ZM87.2,99.16l1.45,2.08.1-.07c.29-.14.41-.49.27-.78,0,0,0-.01,0-.02-.09-.23-.21-.45-.36-.65-.18-.28-.41-.53-.68-.71-.18-.12-.41-.11-.58.02l-.19.13Z"/>
      <path id="_パス_54" data-name="パス 54" class="cls-2" d="M93,99.12l1.18,1.68-1.93,1.51-.1-.12.07-.06c.06-.04.1-.11.09-.19,0-.07-.02-.15-.06-.21-.09-.15-.2-.3-.32-.44l-2.36-3.01c-.11-.15-.23-.29-.36-.42-.05-.05-.12-.08-.19-.1-.07-.02-.14,0-.19.05l-.07.05-.1-.12,1.16-.91.1.12-.1.08c-.06.05-.1.12-.1.19,0,.08.02.15.06.21.09.15.2.3.31.44l2.28,2.91c.11.15.24.3.37.43.05.05.12.08.19.08.08-.02.16-.06.22-.12l.18-.14c.11-.08.18-.22.19-.36,0-.19-.04-.39-.12-.56-.14-.33-.3-.64-.48-.95l.07-.05Z"/>
      <path id="_パス_55" data-name="パス 55" class="cls-2" d="M94.61,100.46l-.1-.12.07-.06c.05-.04.09-.11.08-.18,0-.08-.03-.16-.07-.22-.1-.15-.22-.29-.34-.42l-2.51-2.88c-.12-.14-.25-.28-.38-.4-.06-.05-.13-.07-.2-.09-.07-.01-.14,0-.19.05l-.07.06-.1-.12.93-.81c.21-.2.49-.31.79-.31.4.04.79.18,1.11.42.44.3.84.66,1.19,1.07.25.28.48.59.67.91.16.25.28.52.38.8.07.2.1.42.1.63,0,.19-.06.38-.15.55-.07.12-.16.22-.26.3l-.93.8ZM91.78,95.64l2.99,3.42c.09.11.19.22.3.32.04.03.08.05.12.06.06,0,.12-.01.16-.06.17-.15.2-.39.07-.71-.29-.63-.68-1.21-1.17-1.71-.38-.46-.82-.88-1.31-1.24-.21-.17-.46-.28-.73-.31-.17.02-.34.1-.46.23"/>
      <path id="_パス_56" data-name="パス 56" class="cls-2" d="M96.48,97.04c.07-.07.18-.07.32-.01.16.07.3.17.42.3.12.12.22.27.27.43.05.15.04.25-.03.32-.07.06-.17.07-.32.01-.16-.07-.3-.17-.42-.3-.12-.12-.22-.27-.28-.43-.05-.15-.04-.25.03-.32"/>
    </g>
  </g>
</svg>